<svg xmlns="http://www.w3.org/2000/svg" xmlns:xlink="http://www.w3.org/1999/xlink" width="190" zoomAndPan="magnify" viewBox="0 0 142.5 91.5" height="122" preserveAspectRatio="xMidYMid meet" version="1.0"><defs><g/><clipPath id="2d9ed20acf"><path d="M 39 14.007812 L 103 14.007812 L 103 76.996094 L 39 76.996094 Z M 39 14.007812 " clip-rule="nonzero"/></clipPath><clipPath id="529a9d0ed2"><path d="M 101.527344 45.5 C 101.527344 42.214844 103.164062 38.726562 102.15625 35.765625 C 101.125 32.695312 97.621094 30.804688 95.695312 28.25 C 93.742188 25.667969 92.9375 21.902344 90.253906 20.027344 C 87.597656 18.175781 83.632812 18.589844 80.445312 17.582031 C 77.359375 16.625 74.425781 14.007812 71.015625 14.007812 C 67.601562 14.007812 64.65625 16.613281 61.582031 17.582031 C 58.394531 18.578125 54.417969 18.164062 51.757812 20.027344 C 49.078125 21.902344 48.269531 25.667969 46.320312 28.25 C 44.378906 30.804688 40.890625 32.695312 39.847656 35.765625 C 38.851562 38.726562 40.476562 42.214844 40.476562 45.5 C 40.476562 48.789062 38.839844 52.277344 39.847656 55.234375 C 40.878906 58.308594 44.378906 60.195312 46.308594 62.753906 C 48.257812 65.335938 49.066406 69.101562 51.746094 70.976562 C 54.402344 72.839844 58.371094 72.425781 61.570312 73.417969 C 64.65625 74.375 67.589844 76.996094 71 76.996094 C 74.414062 76.996094 77.359375 74.390625 80.433594 73.417969 C 83.621094 72.425781 87.597656 72.839844 90.253906 70.976562 C 92.9375 69.101562 93.742188 65.335938 95.695312 62.753906 C 97.636719 60.195312 101.125 58.308594 102.15625 55.234375 C 103.164062 52.265625 101.527344 48.777344 101.527344 45.5 Z M 101.527344 45.5 " clip-rule="nonzero"/></clipPath></defs><g clip-path="url(#2d9ed20acf)"><g clip-path="url(#529a9d0ed2)"><path fill="#f49f8a" d="M 38.839844 14.007812 L 103.164062 14.007812 L 103.164062 76.996094 L 38.839844 76.996094 Z M 38.839844 14.007812 " fill-opacity="1" fill-rule="nonzero"/></g></g><g fill="#000000" fill-opacity="1"><g transform="translate(45.24755, 47.752728)"><g><path d="M 8.988281 0 C 8.945312 0.0546875 8.582031 0.585938 7.640625 0.585938 C 6.402344 0.585938 5.585938 -0.398438 4.433594 -0.917969 C 4.488281 -1.0625 4.523438 -1.238281 4.523438 -1.425781 L 4.523438 -7.199219 C 4.410156 -7.277344 3.484375 -8.015625 2.300781 -8.015625 C 1.339844 -8.015625 0.554688 -7.542969 0.554688 -6.8125 C 0.554688 -6.304688 0.941406 -5.859375 1.636719 -5.859375 C 2.066406 -5.859375 2.488281 -6.105469 2.488281 -6.511719 C 1.515625 -6.511719 1.492188 -7.496094 2.246094 -7.496094 C 2.832031 -7.496094 3.03125 -6.867188 3.03125 -5.539062 L 3.03125 -1.328125 C 2.929688 -1.339844 2.820312 -1.347656 2.675781 -1.347656 C 0.640625 -1.347656 0.363281 0.640625 2.367188 0.640625 C 3.019531 0.640625 3.78125 0.320312 4.179688 -0.320312 C 5.273438 0.453125 6.09375 1.859375 7.761719 1.859375 C 9.300781 1.859375 9.609375 0.621094 8.988281 0 Z M 2.355469 0 C 1.757812 0 1.800781 -0.894531 2.710938 -0.894531 C 2.808594 -0.894531 2.90625 -0.882812 3.007812 -0.875 C 2.941406 -0.363281 2.765625 0 2.355469 0 Z M 2.355469 0 "/></g></g></g><g fill="#000000" fill-opacity="1"><g transform="translate(51.284595, 47.752728)"><g><path d="M 7.199219 -2.875 C 7.042969 -1.945312 6.644531 -0.386719 5.859375 -0.386719 C 5.429688 -0.386719 5.109375 -0.839844 5.109375 -1.847656 L 5.109375 -4.832031 L 3.871094 -4.675781 C 3.769531 -3.714844 3.4375 -0.386719 2.265625 -0.386719 C 1.824219 -0.386719 1.515625 -0.839844 1.515625 -1.847656 L 1.515625 -4.832031 L 0.265625 -4.675781 L 0 -2.875 L 0.265625 -2.875 L 0.265625 -1.703125 C 0.265625 -0.441406 0.960938 0.277344 1.847656 0.277344 C 3.050781 0.277344 3.617188 -1.0625 3.871094 -1.992188 L 3.871094 -1.703125 C 3.871094 -0.441406 4.566406 0.277344 5.460938 0.277344 C 7.066406 0.277344 7.496094 -1.992188 7.640625 -2.875 Z M 7.199219 -2.875 "/></g></g></g><g fill="#000000" fill-opacity="1"><g transform="translate(58.48261, 47.752728)"><g><path d="M 0.816406 0 L 1.859375 -1.214844 C 2.34375 -0.410156 2.886719 0.265625 3.363281 0.265625 C 4.675781 0.265625 5.871094 -0.773438 6.226562 -2.875 L 5.785156 -2.875 C 5.574219 -1.492188 4.644531 -0.355469 4.023438 -0.355469 C 3.671875 -0.355469 3.164062 -1.214844 2.699219 -2.199219 L 4.820312 -4.675781 L 3.957031 -4.675781 L 2.398438 -2.863281 C 2.035156 -3.703125 1.734375 -4.511719 1.601562 -4.84375 L 0.277344 -4.675781 L 0 -2.875 L 0.441406 -2.875 L 0.609375 -3.804688 C 0.75 -3.449219 1.09375 -2.632812 1.515625 -1.824219 L -0.0429688 0 Z M 0.816406 0 "/></g></g></g><g fill="#000000" fill-opacity="1"><g transform="translate(64.265348, 47.752728)"><g><path d="M 4.921875 -2.875 C 4.722656 -1.394531 3.449219 -0.410156 2.410156 -0.410156 C 1.582031 -0.410156 1.195312 -1.148438 1.148438 -1.980469 C 4.488281 -1.980469 4.777344 -4.953125 2.445312 -4.953125 C 1.382812 -4.953125 0.242188 -4.347656 0 -2.886719 C -0.34375 -0.75 0.761719 0.277344 2.046875 0.277344 C 3.363281 0.277344 5.121094 -0.808594 5.363281 -2.875 Z M 2.476562 -4.324219 C 3.515625 -4.324219 2.941406 -2.445312 1.148438 -2.433594 C 1.214844 -3.382812 1.703125 -4.324219 2.476562 -4.324219 Z M 2.476562 -4.324219 "/></g></g></g><g fill="#000000" fill-opacity="1"><g transform="translate(69.185651, 47.752728)"><g/></g></g><g fill="#000000" fill-opacity="1"><g transform="translate(72.458481, 47.752728)"><g><path d="M 8.988281 0 C 8.945312 0.0546875 8.582031 0.585938 7.640625 0.585938 C 6.402344 0.585938 5.585938 -0.398438 4.433594 -0.917969 C 4.488281 -1.0625 4.523438 -1.238281 4.523438 -1.425781 L 4.523438 -7.199219 C 4.410156 -7.277344 3.484375 -8.015625 2.300781 -8.015625 C 1.339844 -8.015625 0.554688 -7.542969 0.554688 -6.8125 C 0.554688 -6.304688 0.941406 -5.859375 1.636719 -5.859375 C 2.066406 -5.859375 2.488281 -6.105469 2.488281 -6.511719 C 1.515625 -6.511719 1.492188 -7.496094 2.246094 -7.496094 C 2.832031 -7.496094 3.03125 -6.867188 3.03125 -5.539062 L 3.03125 -1.328125 C 2.929688 -1.339844 2.820312 -1.347656 2.675781 -1.347656 C 0.640625 -1.347656 0.363281 0.640625 2.367188 0.640625 C 3.019531 0.640625 3.78125 0.320312 4.179688 -0.320312 C 5.273438 0.453125 6.09375 1.859375 7.761719 1.859375 C 9.300781 1.859375 9.609375 0.621094 8.988281 0 Z M 2.355469 0 C 1.757812 0 1.800781 -0.894531 2.710938 -0.894531 C 2.808594 -0.894531 2.90625 -0.882812 3.007812 -0.875 C 2.941406 -0.363281 2.765625 0 2.355469 0 Z M 2.355469 0 "/></g></g></g><g fill="#000000" fill-opacity="1"><g transform="translate(78.495526, 47.752728)"><g><path d="M 6.492188 -2.875 L 6.046875 -2.875 C 5.882812 -1.980469 5.460938 -1.667969 5.140625 -1.667969 C 4.964844 -1.667969 4.808594 -1.757812 4.742188 -1.914062 C 5.054688 -3.339844 4.367188 -4.941406 2.542969 -4.941406 C 1.128906 -4.941406 0.265625 -3.980469 0 -2.875 C -0.34375 -1.414062 0.363281 0.265625 2.179688 0.265625 C 3.183594 0.265625 3.925781 -0.242188 4.367188 -0.949219 C 4.457031 -0.929688 4.554688 -0.917969 4.667969 -0.917969 C 5.339844 -0.917969 6.238281 -1.449219 6.492188 -2.875 Z M 2.289062 -0.355469 C 0.664062 -0.355469 0.730469 -4.378906 2.566406 -4.378906 C 3.140625 -4.378906 3.484375 -4.003906 3.648438 -3.484375 C 3.4375 -3.273438 3.261719 -2.820312 3.261719 -2.386719 C 3.261719 -2.066406 3.363281 -1.757812 3.527344 -1.503906 C 3.296875 -0.863281 2.863281 -0.355469 2.289062 -0.355469 Z M 2.289062 -0.355469 "/></g></g></g><g fill="#000000" fill-opacity="1"><g transform="translate(84.543629, 47.752728)"><g><path d="M 6.492188 -2.875 L 6.046875 -2.875 C 5.882812 -1.980469 5.460938 -1.667969 5.140625 -1.667969 C 4.964844 -1.667969 4.808594 -1.757812 4.742188 -1.914062 C 5.054688 -3.339844 4.367188 -4.941406 2.542969 -4.941406 C 1.128906 -4.941406 0.265625 -3.980469 0 -2.875 C -0.34375 -1.414062 0.363281 0.265625 2.179688 0.265625 C 3.183594 0.265625 3.925781 -0.242188 4.367188 -0.949219 C 4.457031 -0.929688 4.554688 -0.917969 4.667969 -0.917969 C 5.339844 -0.917969 6.238281 -1.449219 6.492188 -2.875 Z M 2.289062 -0.355469 C 0.664062 -0.355469 0.730469 -4.378906 2.566406 -4.378906 C 3.140625 -4.378906 3.484375 -4.003906 3.648438 -3.484375 C 3.4375 -3.273438 3.261719 -2.820312 3.261719 -2.386719 C 3.261719 -2.066406 3.363281 -1.757812 3.527344 -1.503906 C 3.296875 -0.863281 2.863281 -0.355469 2.289062 -0.355469 Z M 2.289062 -0.355469 "/></g></g></g><g fill="#000000" fill-opacity="1"><g transform="translate(90.591733, 47.752728)"><g><path d="M 6.601562 -2.875 L 6.160156 -2.875 C 5.980469 -1.933594 5.585938 -1.601562 5.273438 -1.601562 C 5.085938 -1.601562 4.933594 -1.726562 4.875 -1.925781 C 5.285156 -3.703125 4.410156 -4.953125 3.40625 -4.953125 C 2.71875 -4.953125 1.96875 -4.378906 1.515625 -2.996094 L 1.515625 -4.832031 L 0.265625 -4.675781 L 0 -2.875 L 0.265625 -2.875 L 0.265625 2.796875 L 1.515625 2.652344 L 1.515625 0.242188 C 1.691406 0.265625 1.878906 0.277344 2.058594 0.277344 C 3.039062 0.277344 3.949219 -0.078125 4.46875 -0.929688 C 4.578125 -0.894531 4.699219 -0.882812 4.820312 -0.882812 C 5.496094 -0.882812 6.324219 -1.394531 6.601562 -2.875 Z M 1.515625 -0.34375 C 1.535156 -2.089844 2 -4.300781 3.007812 -4.289062 C 3.363281 -4.289062 3.625 -4.003906 3.738281 -3.40625 C 3.550781 -3.140625 3.40625 -2.71875 3.40625 -2.3125 C 3.40625 -2.035156 3.484375 -1.746094 3.617188 -1.515625 C 3.351562 -0.730469 2.785156 -0.296875 1.992188 -0.296875 C 1.835938 -0.296875 1.679688 -0.308594 1.515625 -0.34375 Z M 1.515625 -0.34375 "/></g></g></g><g fill="#000000" fill-opacity="1"><g transform="translate(43.011027, 55.857641)"><g><path d="M 2.390625 -2.375 C 2.390625 -2.226562 2.363281 -2.09375 2.3125 -1.96875 C 2.269531 -1.851562 2.207031 -1.753906 2.125 -1.671875 C 2.050781 -1.585938 1.957031 -1.515625 1.84375 -1.453125 C 1.726562 -1.398438 1.601562 -1.359375 1.46875 -1.328125 C 1.332031 -1.304688 1.1875 -1.296875 1.03125 -1.296875 L 0.484375 -1.28125 L 0.484375 -0.0625 C 0.484375 -0.0390625 0.472656 -0.0195312 0.453125 0 C 0.441406 0.0195312 0.421875 0.03125 0.390625 0.03125 C 0.367188 0.03125 0.347656 0.0195312 0.328125 0 C 0.304688 -0.0195312 0.296875 -0.0390625 0.296875 -0.0625 L 0.296875 -3.265625 C 0.296875 -3.296875 0.300781 -3.316406 0.3125 -3.328125 C 0.332031 -3.347656 0.359375 -3.359375 0.390625 -3.359375 C 0.742188 -3.367188 1.007812 -3.375 1.1875 -3.375 C 1.363281 -3.375 1.519531 -3.351562 1.65625 -3.3125 C 1.800781 -3.269531 1.925781 -3.207031 2.03125 -3.125 C 2.144531 -3.050781 2.234375 -2.945312 2.296875 -2.8125 C 2.359375 -2.6875 2.390625 -2.539062 2.390625 -2.375 Z M 2.203125 -2.375 C 2.203125 -2.65625 2.109375 -2.859375 1.921875 -2.984375 C 1.734375 -3.117188 1.488281 -3.1875 1.1875 -3.1875 C 1.09375 -3.1875 0.960938 -3.1875 0.796875 -3.1875 C 0.640625 -3.1875 0.535156 -3.1875 0.484375 -3.1875 L 0.484375 -1.46875 L 1.03125 -1.46875 C 1.207031 -1.476562 1.363281 -1.5 1.5 -1.53125 C 1.632812 -1.5625 1.753906 -1.613281 1.859375 -1.6875 C 1.972656 -1.757812 2.054688 -1.851562 2.109375 -1.96875 C 2.171875 -2.082031 2.203125 -2.21875 2.203125 -2.375 Z M 2.203125 -2.375 "/></g></g></g><g fill="#000000" fill-opacity="1"><g transform="translate(45.592559, 55.857641)"><g><path d="M 1.75 -1.5 C 1.800781 -1.46875 1.847656 -1.425781 1.890625 -1.375 C 1.941406 -1.332031 1.984375 -1.28125 2.015625 -1.21875 C 2.054688 -1.164062 2.09375 -1.113281 2.125 -1.0625 C 2.15625 -1.019531 2.1875 -0.960938 2.21875 -0.890625 C 2.257812 -0.816406 2.285156 -0.765625 2.296875 -0.734375 C 2.441406 -0.492188 2.625 -0.289062 2.84375 -0.125 C 2.863281 -0.113281 2.875 -0.0859375 2.875 -0.046875 C 2.875 -0.0234375 2.863281 -0.00390625 2.84375 0.015625 C 2.832031 0.0351562 2.8125 0.046875 2.78125 0.046875 C 2.769531 0.046875 2.753906 0.0351562 2.734375 0.015625 C 2.484375 -0.160156 2.285156 -0.378906 2.140625 -0.640625 C 2.117188 -0.679688 2.085938 -0.734375 2.046875 -0.796875 C 2.015625 -0.867188 1.988281 -0.925781 1.96875 -0.96875 C 1.945312 -1.007812 1.914062 -1.054688 1.875 -1.109375 C 1.84375 -1.171875 1.804688 -1.21875 1.765625 -1.25 C 1.734375 -1.289062 1.691406 -1.328125 1.640625 -1.359375 C 1.585938 -1.398438 1.53125 -1.425781 1.46875 -1.4375 C 1.414062 -1.457031 1.351562 -1.46875 1.28125 -1.46875 L 0.484375 -1.46875 L 0.484375 -0.046875 C 0.484375 -0.0234375 0.472656 -0.0078125 0.453125 0 C 0.441406 0.0195312 0.421875 0.03125 0.390625 0.03125 C 0.367188 0.03125 0.347656 0.0195312 0.328125 0 C 0.316406 -0.0078125 0.3125 -0.0234375 0.3125 -0.046875 L 0.3125 -0.0625 L 0.296875 -3.28125 C 0.296875 -3.300781 0.300781 -3.316406 0.3125 -3.328125 C 0.332031 -3.347656 0.359375 -3.359375 0.390625 -3.359375 L 1.28125 -3.375 C 1.425781 -3.375 1.5625 -3.363281 1.6875 -3.34375 C 1.820312 -3.332031 1.945312 -3.300781 2.0625 -3.25 C 2.1875 -3.207031 2.289062 -3.148438 2.375 -3.078125 C 2.46875 -3.003906 2.535156 -2.914062 2.578125 -2.8125 C 2.628906 -2.707031 2.65625 -2.582031 2.65625 -2.4375 C 2.65625 -2.3125 2.628906 -2.191406 2.578125 -2.078125 C 2.535156 -1.960938 2.46875 -1.867188 2.375 -1.796875 C 2.289062 -1.722656 2.195312 -1.660156 2.09375 -1.609375 C 1.988281 -1.554688 1.875 -1.519531 1.75 -1.5 Z M 2.484375 -2.453125 C 2.484375 -2.585938 2.445312 -2.707031 2.375 -2.8125 C 2.3125 -2.914062 2.21875 -2.992188 2.09375 -3.046875 C 1.976562 -3.097656 1.851562 -3.132812 1.71875 -3.15625 C 1.59375 -3.1875 1.445312 -3.203125 1.28125 -3.203125 L 0.484375 -3.1875 L 0.484375 -1.65625 L 1.28125 -1.65625 C 1.414062 -1.65625 1.535156 -1.660156 1.640625 -1.671875 C 1.753906 -1.691406 1.863281 -1.71875 1.96875 -1.75 C 2.070312 -1.789062 2.160156 -1.84375 2.234375 -1.90625 C 2.304688 -1.96875 2.363281 -2.039062 2.40625 -2.125 C 2.457031 -2.21875 2.484375 -2.328125 2.484375 -2.453125 Z M 2.484375 -2.453125 "/></g></g></g><g fill="#000000" fill-opacity="1"><g transform="translate(48.58625, 55.857641)"><g><path d="M 0.390625 -3.40625 L 2.5625 -3.390625 C 2.582031 -3.390625 2.601562 -3.378906 2.625 -3.359375 C 2.644531 -3.347656 2.65625 -3.328125 2.65625 -3.296875 C 2.65625 -3.273438 2.644531 -3.253906 2.625 -3.234375 C 2.601562 -3.210938 2.582031 -3.203125 2.5625 -3.203125 L 2.5625 -3.21875 L 0.484375 -3.21875 L 0.484375 -1.796875 L 2.375 -1.78125 C 2.394531 -1.78125 2.414062 -1.769531 2.4375 -1.75 C 2.457031 -1.738281 2.46875 -1.71875 2.46875 -1.6875 C 2.46875 -1.664062 2.457031 -1.644531 2.4375 -1.625 C 2.414062 -1.601562 2.390625 -1.59375 2.359375 -1.59375 L 0.484375 -1.609375 L 0.484375 -0.1875 L 2.5625 -0.1875 C 2.582031 -0.1875 2.601562 -0.175781 2.625 -0.15625 C 2.644531 -0.132812 2.65625 -0.109375 2.65625 -0.078125 C 2.65625 -0.0546875 2.644531 -0.0351562 2.625 -0.015625 C 2.601562 -0.00390625 2.582031 0 2.5625 0 L 0.390625 0 C 0.367188 0 0.347656 -0.00390625 0.328125 -0.015625 C 0.304688 -0.0351562 0.296875 -0.0625 0.296875 -0.09375 L 0.296875 -3.3125 C 0.296875 -3.332031 0.300781 -3.351562 0.3125 -3.375 C 0.332031 -3.394531 0.359375 -3.40625 0.390625 -3.40625 Z M 0.390625 -3.40625 "/></g></g></g><g fill="#000000" fill-opacity="1"><g transform="translate(51.35782, 55.857641)"><g><path d="M 0.390625 -3.40625 C 0.421875 -3.40625 0.445312 -3.390625 0.46875 -3.359375 L 2.75 -0.34375 L 2.765625 -3.296875 L 2.765625 -3.3125 C 2.765625 -3.332031 2.769531 -3.347656 2.78125 -3.359375 C 2.800781 -3.378906 2.820312 -3.390625 2.84375 -3.390625 C 2.875 -3.390625 2.894531 -3.378906 2.90625 -3.359375 C 2.925781 -3.347656 2.9375 -3.332031 2.9375 -3.3125 L 2.9375 -0.0625 C 2.9375 -0.03125 2.925781 -0.0078125 2.90625 0 C 2.894531 0.0195312 2.875 0.03125 2.84375 0.03125 C 2.8125 0.03125 2.789062 0.0195312 2.78125 0 L 0.484375 -3.03125 L 0.484375 -0.0625 C 0.484375 -0.03125 0.472656 -0.0078125 0.453125 0 C 0.441406 0.0195312 0.421875 0.03125 0.390625 0.03125 C 0.359375 0.03125 0.332031 0.0195312 0.3125 0 C 0.300781 -0.0078125 0.296875 -0.03125 0.296875 -0.0625 L 0.296875 -3.3125 C 0.296875 -3.332031 0.300781 -3.351562 0.3125 -3.375 C 0.332031 -3.394531 0.359375 -3.40625 0.390625 -3.40625 Z M 0.390625 -3.40625 "/></g></g></g><g fill="#000000" fill-opacity="1"><g transform="translate(54.590905, 55.857641)"><g><path d="M 1.09375 -3.390625 C 1.394531 -3.390625 1.664062 -3.351562 1.90625 -3.28125 C 2.144531 -3.207031 2.351562 -3.101562 2.53125 -2.96875 C 2.707031 -2.832031 2.84375 -2.65625 2.9375 -2.4375 C 3.039062 -2.21875 3.09375 -1.96875 3.09375 -1.6875 C 3.09375 -1.40625 3.046875 -1.15625 2.953125 -0.9375 C 2.859375 -0.71875 2.722656 -0.539062 2.546875 -0.40625 C 2.367188 -0.269531 2.160156 -0.164062 1.921875 -0.09375 C 1.691406 -0.0195312 1.429688 0.015625 1.140625 0.015625 C 1.066406 0.015625 0.988281 0.015625 0.90625 0.015625 C 0.820312 0.015625 0.726562 0.015625 0.625 0.015625 C 0.519531 0.015625 0.441406 0.015625 0.390625 0.015625 C 0.359375 0.015625 0.332031 0.00390625 0.3125 -0.015625 C 0.300781 -0.0351562 0.296875 -0.0546875 0.296875 -0.078125 L 0.3125 -3.28125 C 0.3125 -3.3125 0.320312 -3.332031 0.34375 -3.34375 C 0.363281 -3.363281 0.382812 -3.375 0.40625 -3.375 Z M 0.5 -3.203125 L 0.484375 -0.171875 C 0.910156 -0.171875 1.125 -0.171875 1.125 -0.171875 C 1.394531 -0.171875 1.632812 -0.203125 1.84375 -0.265625 C 2.0625 -0.328125 2.25 -0.414062 2.40625 -0.53125 C 2.570312 -0.65625 2.695312 -0.8125 2.78125 -1 C 2.875 -1.195312 2.921875 -1.425781 2.921875 -1.6875 C 2.921875 -1.945312 2.875 -2.171875 2.78125 -2.359375 C 2.6875 -2.554688 2.554688 -2.710938 2.390625 -2.828125 C 2.234375 -2.953125 2.046875 -3.046875 1.828125 -3.109375 C 1.609375 -3.171875 1.363281 -3.203125 1.09375 -3.203125 Z M 0.5 -3.203125 "/></g></g></g><g fill="#000000" fill-opacity="1"><g transform="translate(57.880756, 55.857641)"><g><path d="M 1.546875 -3.34375 C 1.546875 -3.351562 1.554688 -3.363281 1.578125 -3.375 C 1.597656 -3.382812 1.613281 -3.390625 1.625 -3.390625 C 1.664062 -3.390625 1.695312 -3.375 1.71875 -3.34375 L 3.125 -0.109375 C 3.132812 -0.0976562 3.140625 -0.0820312 3.140625 -0.0625 C 3.140625 -0.0390625 3.128906 -0.0195312 3.109375 0 C 3.085938 0.0195312 3.066406 0.03125 3.046875 0.03125 C 3.003906 0.03125 2.972656 0.0078125 2.953125 -0.03125 L 2.453125 -1.1875 L 0.8125 -1.203125 L 0.296875 -0.03125 C 0.285156 0.0078125 0.257812 0.03125 0.21875 0.03125 C 0.1875 0.03125 0.160156 0.0195312 0.140625 0 C 0.128906 -0.0078125 0.125 -0.03125 0.125 -0.0625 C 0.125 -0.0703125 0.125 -0.0820312 0.125 -0.09375 Z M 1.625 -3.078125 L 0.890625 -1.390625 L 2.375 -1.375 Z M 1.625 -3.078125 "/></g></g></g><g fill="#000000" fill-opacity="1"><g transform="translate(61.133585, 55.857641)"><g><path d="M 1.546875 -3.390625 C 1.804688 -3.390625 2.035156 -3.328125 2.234375 -3.203125 C 2.429688 -3.078125 2.578125 -2.910156 2.671875 -2.703125 C 2.671875 -2.691406 2.671875 -2.675781 2.671875 -2.65625 C 2.671875 -2.632812 2.660156 -2.613281 2.640625 -2.59375 C 2.628906 -2.582031 2.613281 -2.578125 2.59375 -2.578125 C 2.550781 -2.578125 2.523438 -2.59375 2.515625 -2.625 C 2.429688 -2.800781 2.304688 -2.941406 2.140625 -3.046875 C 1.972656 -3.160156 1.773438 -3.21875 1.546875 -3.21875 C 1.421875 -3.21875 1.296875 -3.195312 1.171875 -3.15625 C 1.046875 -3.125 0.925781 -3.078125 0.8125 -3.015625 C 0.707031 -2.953125 0.625 -2.867188 0.5625 -2.765625 C 0.5 -2.660156 0.46875 -2.546875 0.46875 -2.421875 C 0.46875 -2.304688 0.5 -2.207031 0.5625 -2.125 C 0.625 -2.039062 0.703125 -1.972656 0.796875 -1.921875 C 0.921875 -1.867188 1.070312 -1.828125 1.25 -1.796875 C 1.4375 -1.773438 1.625 -1.753906 1.8125 -1.734375 C 2.007812 -1.722656 2.175781 -1.691406 2.3125 -1.640625 C 2.445312 -1.578125 2.554688 -1.488281 2.640625 -1.375 C 2.734375 -1.257812 2.78125 -1.117188 2.78125 -0.953125 C 2.78125 -0.785156 2.742188 -0.640625 2.671875 -0.515625 C 2.609375 -0.390625 2.519531 -0.285156 2.40625 -0.203125 C 2.289062 -0.128906 2.160156 -0.0703125 2.015625 -0.03125 C 1.867188 0.0078125 1.710938 0.03125 1.546875 0.03125 C 1.242188 0.03125 0.976562 -0.03125 0.75 -0.15625 C 0.53125 -0.289062 0.363281 -0.484375 0.25 -0.734375 C 0.25 -0.742188 0.25 -0.753906 0.25 -0.765625 C 0.25 -0.785156 0.253906 -0.800781 0.265625 -0.8125 C 0.285156 -0.832031 0.304688 -0.84375 0.328125 -0.84375 C 0.367188 -0.84375 0.394531 -0.828125 0.40625 -0.796875 C 0.5 -0.585938 0.644531 -0.425781 0.84375 -0.3125 C 1.039062 -0.195312 1.273438 -0.140625 1.546875 -0.140625 C 1.734375 -0.140625 1.90625 -0.164062 2.0625 -0.21875 C 2.21875 -0.28125 2.347656 -0.375 2.453125 -0.5 C 2.554688 -0.625 2.609375 -0.773438 2.609375 -0.953125 C 2.609375 -1.078125 2.570312 -1.179688 2.5 -1.265625 C 2.4375 -1.359375 2.347656 -1.425781 2.234375 -1.46875 C 2.140625 -1.507812 2.019531 -1.539062 1.875 -1.5625 C 1.726562 -1.59375 1.59375 -1.609375 1.46875 -1.609375 C 1.351562 -1.617188 1.222656 -1.632812 1.078125 -1.65625 C 0.941406 -1.6875 0.820312 -1.722656 0.71875 -1.765625 C 0.59375 -1.828125 0.488281 -1.910156 0.40625 -2.015625 C 0.332031 -2.128906 0.296875 -2.265625 0.296875 -2.421875 C 0.296875 -2.546875 0.316406 -2.660156 0.359375 -2.765625 C 0.410156 -2.867188 0.476562 -2.957031 0.5625 -3.03125 C 0.644531 -3.113281 0.738281 -3.179688 0.84375 -3.234375 C 0.957031 -3.285156 1.070312 -3.320312 1.1875 -3.34375 C 1.3125 -3.375 1.429688 -3.390625 1.546875 -3.390625 Z M 1.546875 -3.390625 "/></g></g></g><g fill="#000000" fill-opacity="1"><g transform="translate(64.161828, 55.857641)"><g/></g></g><g fill="#000000" fill-opacity="1"><g transform="translate(65.54391, 55.857641)"><g><path d="M 1.546875 -3.390625 C 1.804688 -3.390625 2.035156 -3.328125 2.234375 -3.203125 C 2.429688 -3.078125 2.578125 -2.910156 2.671875 -2.703125 C 2.671875 -2.691406 2.671875 -2.675781 2.671875 -2.65625 C 2.671875 -2.632812 2.660156 -2.613281 2.640625 -2.59375 C 2.628906 -2.582031 2.613281 -2.578125 2.59375 -2.578125 C 2.550781 -2.578125 2.523438 -2.59375 2.515625 -2.625 C 2.429688 -2.800781 2.304688 -2.941406 2.140625 -3.046875 C 1.972656 -3.160156 1.773438 -3.21875 1.546875 -3.21875 C 1.421875 -3.21875 1.296875 -3.195312 1.171875 -3.15625 C 1.046875 -3.125 0.925781 -3.078125 0.8125 -3.015625 C 0.707031 -2.953125 0.625 -2.867188 0.5625 -2.765625 C 0.5 -2.660156 0.46875 -2.546875 0.46875 -2.421875 C 0.46875 -2.304688 0.5 -2.207031 0.5625 -2.125 C 0.625 -2.039062 0.703125 -1.972656 0.796875 -1.921875 C 0.921875 -1.867188 1.070312 -1.828125 1.25 -1.796875 C 1.4375 -1.773438 1.625 -1.753906 1.8125 -1.734375 C 2.007812 -1.722656 2.175781 -1.691406 2.3125 -1.640625 C 2.445312 -1.578125 2.554688 -1.488281 2.640625 -1.375 C 2.734375 -1.257812 2.78125 -1.117188 2.78125 -0.953125 C 2.78125 -0.785156 2.742188 -0.640625 2.671875 -0.515625 C 2.609375 -0.390625 2.519531 -0.285156 2.40625 -0.203125 C 2.289062 -0.128906 2.160156 -0.0703125 2.015625 -0.03125 C 1.867188 0.0078125 1.710938 0.03125 1.546875 0.03125 C 1.242188 0.03125 0.976562 -0.03125 0.75 -0.15625 C 0.53125 -0.289062 0.363281 -0.484375 0.25 -0.734375 C 0.25 -0.742188 0.25 -0.753906 0.25 -0.765625 C 0.25 -0.785156 0.253906 -0.800781 0.265625 -0.8125 C 0.285156 -0.832031 0.304688 -0.84375 0.328125 -0.84375 C 0.367188 -0.84375 0.394531 -0.828125 0.40625 -0.796875 C 0.5 -0.585938 0.644531 -0.425781 0.84375 -0.3125 C 1.039062 -0.195312 1.273438 -0.140625 1.546875 -0.140625 C 1.734375 -0.140625 1.90625 -0.164062 2.0625 -0.21875 C 2.21875 -0.28125 2.347656 -0.375 2.453125 -0.5 C 2.554688 -0.625 2.609375 -0.773438 2.609375 -0.953125 C 2.609375 -1.078125 2.570312 -1.179688 2.5 -1.265625 C 2.4375 -1.359375 2.347656 -1.425781 2.234375 -1.46875 C 2.140625 -1.507812 2.019531 -1.539062 1.875 -1.5625 C 1.726562 -1.59375 1.59375 -1.609375 1.46875 -1.609375 C 1.351562 -1.617188 1.222656 -1.632812 1.078125 -1.65625 C 0.941406 -1.6875 0.820312 -1.722656 0.71875 -1.765625 C 0.59375 -1.828125 0.488281 -1.910156 0.40625 -2.015625 C 0.332031 -2.128906 0.296875 -2.265625 0.296875 -2.421875 C 0.296875 -2.546875 0.316406 -2.660156 0.359375 -2.765625 C 0.410156 -2.867188 0.476562 -2.957031 0.5625 -3.03125 C 0.644531 -3.113281 0.738281 -3.179688 0.84375 -3.234375 C 0.957031 -3.285156 1.070312 -3.320312 1.1875 -3.34375 C 1.3125 -3.375 1.429688 -3.390625 1.546875 -3.390625 Z M 1.546875 -3.390625 "/></g></g></g><g fill="#000000" fill-opacity="1"><g transform="translate(68.572153, 55.857641)"><g><path d="M 0.203125 -1.6875 C 0.203125 -1.988281 0.273438 -2.269531 0.421875 -2.53125 C 0.566406 -2.800781 0.769531 -3.007812 1.03125 -3.15625 C 1.289062 -3.3125 1.570312 -3.390625 1.875 -3.390625 C 2.101562 -3.390625 2.320312 -3.34375 2.53125 -3.25 C 2.738281 -3.15625 2.914062 -3.03125 3.0625 -2.875 C 3.21875 -2.726562 3.335938 -2.546875 3.421875 -2.328125 C 3.515625 -2.117188 3.5625 -1.90625 3.5625 -1.6875 C 3.5625 -1.457031 3.515625 -1.238281 3.421875 -1.03125 C 3.335938 -0.820312 3.21875 -0.640625 3.0625 -0.484375 C 2.914062 -0.328125 2.738281 -0.203125 2.53125 -0.109375 C 2.320312 -0.015625 2.101562 0.03125 1.875 0.03125 C 1.65625 0.03125 1.441406 -0.015625 1.234375 -0.109375 C 1.023438 -0.203125 0.84375 -0.320312 0.6875 -0.46875 C 0.539062 -0.625 0.421875 -0.804688 0.328125 -1.015625 C 0.242188 -1.234375 0.203125 -1.457031 0.203125 -1.6875 Z M 1.875 -3.203125 C 1.601562 -3.203125 1.351562 -3.132812 1.125 -3 C 0.894531 -2.863281 0.710938 -2.675781 0.578125 -2.4375 C 0.453125 -2.207031 0.390625 -1.957031 0.390625 -1.6875 C 0.390625 -1.414062 0.453125 -1.160156 0.578125 -0.921875 C 0.710938 -0.691406 0.894531 -0.503906 1.125 -0.359375 C 1.351562 -0.222656 1.601562 -0.15625 1.875 -0.15625 C 2.144531 -0.15625 2.394531 -0.222656 2.625 -0.359375 C 2.851562 -0.503906 3.035156 -0.691406 3.171875 -0.921875 C 3.304688 -1.160156 3.375 -1.414062 3.375 -1.6875 C 3.375 -1.957031 3.304688 -2.207031 3.171875 -2.4375 C 3.046875 -2.664062 2.863281 -2.847656 2.625 -2.984375 C 2.394531 -3.128906 2.144531 -3.203125 1.875 -3.203125 Z M 1.875 -3.203125 "/></g></g></g><g fill="#000000" fill-opacity="1"><g transform="translate(72.328455, 55.857641)"><g><path d="M 0.484375 -1.671875 L 0.484375 -0.0625 C 0.484375 -0.0390625 0.472656 -0.0195312 0.453125 0 C 0.441406 0.0195312 0.421875 0.03125 0.390625 0.03125 C 0.367188 0.03125 0.347656 0.0195312 0.328125 0 C 0.304688 -0.0195312 0.296875 -0.0390625 0.296875 -0.0625 L 0.296875 -3.265625 C 0.296875 -3.296875 0.300781 -3.316406 0.3125 -3.328125 C 0.332031 -3.347656 0.359375 -3.359375 0.390625 -3.359375 L 2.40625 -3.359375 C 2.425781 -3.359375 2.445312 -3.347656 2.46875 -3.328125 C 2.488281 -3.316406 2.5 -3.296875 2.5 -3.265625 C 2.5 -3.242188 2.488281 -3.222656 2.46875 -3.203125 C 2.445312 -3.179688 2.425781 -3.171875 2.40625 -3.171875 L 0.484375 -3.171875 L 0.484375 -1.859375 L 1.9375 -1.875 C 1.96875 -1.875 1.988281 -1.863281 2 -1.84375 C 2.019531 -1.820312 2.03125 -1.796875 2.03125 -1.765625 C 2.03125 -1.742188 2.019531 -1.722656 2 -1.703125 C 1.988281 -1.691406 1.96875 -1.6875 1.9375 -1.6875 Z M 0.484375 -1.671875 "/></g></g></g><g fill="#000000" fill-opacity="1"><g transform="translate(74.942073, 55.857641)"><g><path d="M 0.3125 -3.359375 C 0.332031 -3.378906 0.359375 -3.390625 0.390625 -3.390625 C 0.421875 -3.390625 0.441406 -3.378906 0.453125 -3.359375 C 0.472656 -3.347656 0.484375 -3.328125 0.484375 -3.296875 L 0.484375 -0.0625 C 0.484375 -0.03125 0.472656 -0.0078125 0.453125 0 C 0.441406 0.0195312 0.421875 0.03125 0.390625 0.03125 C 0.367188 0.03125 0.347656 0.0195312 0.328125 0 C 0.304688 -0.0078125 0.296875 -0.03125 0.296875 -0.0625 L 0.296875 -3.296875 C 0.296875 -3.328125 0.300781 -3.347656 0.3125 -3.359375 Z M 0.3125 -3.359375 "/></g></g></g><g fill="#000000" fill-opacity="1"><g transform="translate(75.721962, 55.857641)"><g><path d="M 1.546875 -3.390625 C 1.804688 -3.390625 2.035156 -3.328125 2.234375 -3.203125 C 2.429688 -3.078125 2.578125 -2.910156 2.671875 -2.703125 C 2.671875 -2.691406 2.671875 -2.675781 2.671875 -2.65625 C 2.671875 -2.632812 2.660156 -2.613281 2.640625 -2.59375 C 2.628906 -2.582031 2.613281 -2.578125 2.59375 -2.578125 C 2.550781 -2.578125 2.523438 -2.59375 2.515625 -2.625 C 2.429688 -2.800781 2.304688 -2.941406 2.140625 -3.046875 C 1.972656 -3.160156 1.773438 -3.21875 1.546875 -3.21875 C 1.421875 -3.21875 1.296875 -3.195312 1.171875 -3.15625 C 1.046875 -3.125 0.925781 -3.078125 0.8125 -3.015625 C 0.707031 -2.953125 0.625 -2.867188 0.5625 -2.765625 C 0.5 -2.660156 0.46875 -2.546875 0.46875 -2.421875 C 0.46875 -2.304688 0.5 -2.207031 0.5625 -2.125 C 0.625 -2.039062 0.703125 -1.972656 0.796875 -1.921875 C 0.921875 -1.867188 1.070312 -1.828125 1.25 -1.796875 C 1.4375 -1.773438 1.625 -1.753906 1.8125 -1.734375 C 2.007812 -1.722656 2.175781 -1.691406 2.3125 -1.640625 C 2.445312 -1.578125 2.554688 -1.488281 2.640625 -1.375 C 2.734375 -1.257812 2.78125 -1.117188 2.78125 -0.953125 C 2.78125 -0.785156 2.742188 -0.640625 2.671875 -0.515625 C 2.609375 -0.390625 2.519531 -0.285156 2.40625 -0.203125 C 2.289062 -0.128906 2.160156 -0.0703125 2.015625 -0.03125 C 1.867188 0.0078125 1.710938 0.03125 1.546875 0.03125 C 1.242188 0.03125 0.976562 -0.03125 0.75 -0.15625 C 0.53125 -0.289062 0.363281 -0.484375 0.25 -0.734375 C 0.25 -0.742188 0.25 -0.753906 0.25 -0.765625 C 0.25 -0.785156 0.253906 -0.800781 0.265625 -0.8125 C 0.285156 -0.832031 0.304688 -0.84375 0.328125 -0.84375 C 0.367188 -0.84375 0.394531 -0.828125 0.40625 -0.796875 C 0.5 -0.585938 0.644531 -0.425781 0.84375 -0.3125 C 1.039062 -0.195312 1.273438 -0.140625 1.546875 -0.140625 C 1.734375 -0.140625 1.90625 -0.164062 2.0625 -0.21875 C 2.21875 -0.28125 2.347656 -0.375 2.453125 -0.5 C 2.554688 -0.625 2.609375 -0.773438 2.609375 -0.953125 C 2.609375 -1.078125 2.570312 -1.179688 2.5 -1.265625 C 2.4375 -1.359375 2.347656 -1.425781 2.234375 -1.46875 C 2.140625 -1.507812 2.019531 -1.539062 1.875 -1.5625 C 1.726562 -1.59375 1.59375 -1.609375 1.46875 -1.609375 C 1.351562 -1.617188 1.222656 -1.632812 1.078125 -1.65625 C 0.941406 -1.6875 0.820312 -1.722656 0.71875 -1.765625 C 0.59375 -1.828125 0.488281 -1.910156 0.40625 -2.015625 C 0.332031 -2.128906 0.296875 -2.265625 0.296875 -2.421875 C 0.296875 -2.546875 0.316406 -2.660156 0.359375 -2.765625 C 0.410156 -2.867188 0.476562 -2.957031 0.5625 -3.03125 C 0.644531 -3.113281 0.738281 -3.179688 0.84375 -3.234375 C 0.957031 -3.285156 1.070312 -3.320312 1.1875 -3.34375 C 1.3125 -3.375 1.429688 -3.390625 1.546875 -3.390625 Z M 1.546875 -3.390625 "/></g></g></g><g fill="#000000" fill-opacity="1"><g transform="translate(78.750205, 55.857641)"><g><path d="M 0.21875 -3.359375 C 0.582031 -3.359375 1.039062 -3.359375 1.59375 -3.359375 C 2.15625 -3.367188 2.570312 -3.375 2.84375 -3.375 C 2.863281 -3.375 2.878906 -3.363281 2.890625 -3.34375 C 2.910156 -3.320312 2.921875 -3.296875 2.921875 -3.265625 C 2.921875 -3.242188 2.910156 -3.222656 2.890625 -3.203125 C 2.878906 -3.191406 2.863281 -3.1875 2.84375 -3.1875 L 1.625 -3.1875 L 1.609375 -0.0625 C 1.609375 -0.03125 1.597656 -0.0078125 1.578125 0 C 1.566406 0.0195312 1.546875 0.03125 1.515625 0.03125 C 1.484375 0.03125 1.457031 0.0195312 1.4375 0 C 1.425781 -0.0078125 1.421875 -0.03125 1.421875 -0.0625 L 1.4375 -3.1875 L 0.21875 -3.171875 C 0.1875 -3.171875 0.160156 -3.179688 0.140625 -3.203125 C 0.128906 -3.222656 0.125 -3.242188 0.125 -3.265625 C 0.125 -3.296875 0.128906 -3.316406 0.140625 -3.328125 C 0.160156 -3.347656 0.1875 -3.359375 0.21875 -3.359375 Z M 0.21875 -3.359375 "/></g></g></g><g fill="#000000" fill-opacity="1"><g transform="translate(81.798191, 55.857641)"><g><path d="M 0.3125 -3.359375 C 0.332031 -3.378906 0.359375 -3.390625 0.390625 -3.390625 C 0.421875 -3.390625 0.441406 -3.378906 0.453125 -3.359375 C 0.472656 -3.347656 0.484375 -3.328125 0.484375 -3.296875 L 0.484375 -0.0625 C 0.484375 -0.03125 0.472656 -0.0078125 0.453125 0 C 0.441406 0.0195312 0.421875 0.03125 0.390625 0.03125 C 0.367188 0.03125 0.347656 0.0195312 0.328125 0 C 0.304688 -0.0078125 0.296875 -0.03125 0.296875 -0.0625 L 0.296875 -3.296875 C 0.296875 -3.328125 0.300781 -3.347656 0.3125 -3.359375 Z M 0.3125 -3.359375 "/></g></g></g><g fill="#000000" fill-opacity="1"><g transform="translate(82.578081, 55.857641)"><g><path d="M 0.203125 -1.671875 C 0.203125 -1.910156 0.242188 -2.132812 0.328125 -2.34375 C 0.410156 -2.550781 0.523438 -2.726562 0.671875 -2.875 C 0.828125 -3.03125 1.007812 -3.15625 1.21875 -3.25 C 1.425781 -3.34375 1.644531 -3.390625 1.875 -3.390625 C 2.21875 -3.390625 2.519531 -3.300781 2.78125 -3.125 C 3.050781 -2.945312 3.25 -2.722656 3.375 -2.453125 C 3.382812 -2.441406 3.390625 -2.425781 3.390625 -2.40625 C 3.390625 -2.382812 3.378906 -2.363281 3.359375 -2.34375 C 3.335938 -2.320312 3.316406 -2.3125 3.296875 -2.3125 C 3.253906 -2.3125 3.226562 -2.332031 3.21875 -2.375 C 3.09375 -2.613281 2.914062 -2.8125 2.6875 -2.96875 C 2.457031 -3.125 2.1875 -3.203125 1.875 -3.203125 C 1.601562 -3.203125 1.351562 -3.132812 1.125 -3 C 0.894531 -2.863281 0.710938 -2.675781 0.578125 -2.4375 C 0.453125 -2.207031 0.390625 -1.953125 0.390625 -1.671875 C 0.390625 -1.398438 0.453125 -1.144531 0.578125 -0.90625 C 0.703125 -0.675781 0.878906 -0.492188 1.109375 -0.359375 C 1.335938 -0.222656 1.59375 -0.15625 1.875 -0.15625 C 2.1875 -0.15625 2.457031 -0.234375 2.6875 -0.390625 C 2.925781 -0.554688 3.101562 -0.765625 3.21875 -1.015625 C 3.226562 -1.054688 3.253906 -1.078125 3.296875 -1.078125 C 3.328125 -1.078125 3.347656 -1.066406 3.359375 -1.046875 C 3.378906 -1.023438 3.390625 -1.003906 3.390625 -0.984375 C 3.390625 -0.972656 3.390625 -0.957031 3.390625 -0.9375 C 3.253906 -0.65625 3.054688 -0.421875 2.796875 -0.234375 C 2.535156 -0.0546875 2.226562 0.03125 1.875 0.03125 C 1.5625 0.03125 1.273438 -0.046875 1.015625 -0.203125 C 0.765625 -0.359375 0.566406 -0.566406 0.421875 -0.828125 C 0.273438 -1.085938 0.203125 -1.367188 0.203125 -1.671875 Z M 0.203125 -1.671875 "/></g></g></g><g fill="#000000" fill-opacity="1"><g transform="translate(86.161622, 55.857641)"><g><path d="M 1.546875 -3.34375 C 1.546875 -3.351562 1.554688 -3.363281 1.578125 -3.375 C 1.597656 -3.382812 1.613281 -3.390625 1.625 -3.390625 C 1.664062 -3.390625 1.695312 -3.375 1.71875 -3.34375 L 3.125 -0.109375 C 3.132812 -0.0976562 3.140625 -0.0820312 3.140625 -0.0625 C 3.140625 -0.0390625 3.128906 -0.0195312 3.109375 0 C 3.085938 0.0195312 3.066406 0.03125 3.046875 0.03125 C 3.003906 0.03125 2.972656 0.0078125 2.953125 -0.03125 L 2.453125 -1.1875 L 0.8125 -1.203125 L 0.296875 -0.03125 C 0.285156 0.0078125 0.257812 0.03125 0.21875 0.03125 C 0.1875 0.03125 0.160156 0.0195312 0.140625 0 C 0.128906 -0.0078125 0.125 -0.03125 0.125 -0.0625 C 0.125 -0.0703125 0.125 -0.0820312 0.125 -0.09375 Z M 1.625 -3.078125 L 0.890625 -1.390625 L 2.375 -1.375 Z M 1.625 -3.078125 "/></g></g></g><g fill="#000000" fill-opacity="1"><g transform="translate(89.414452, 55.857641)"><g><path d="M 1.09375 -3.390625 C 1.394531 -3.390625 1.664062 -3.351562 1.90625 -3.28125 C 2.144531 -3.207031 2.351562 -3.101562 2.53125 -2.96875 C 2.707031 -2.832031 2.84375 -2.65625 2.9375 -2.4375 C 3.039062 -2.21875 3.09375 -1.96875 3.09375 -1.6875 C 3.09375 -1.40625 3.046875 -1.15625 2.953125 -0.9375 C 2.859375 -0.71875 2.722656 -0.539062 2.546875 -0.40625 C 2.367188 -0.269531 2.160156 -0.164062 1.921875 -0.09375 C 1.691406 -0.0195312 1.429688 0.015625 1.140625 0.015625 C 1.066406 0.015625 0.988281 0.015625 0.90625 0.015625 C 0.820312 0.015625 0.726562 0.015625 0.625 0.015625 C 0.519531 0.015625 0.441406 0.015625 0.390625 0.015625 C 0.359375 0.015625 0.332031 0.00390625 0.3125 -0.015625 C 0.300781 -0.0351562 0.296875 -0.0546875 0.296875 -0.078125 L 0.3125 -3.28125 C 0.3125 -3.3125 0.320312 -3.332031 0.34375 -3.34375 C 0.363281 -3.363281 0.382812 -3.375 0.40625 -3.375 Z M 0.5 -3.203125 L 0.484375 -0.171875 C 0.910156 -0.171875 1.125 -0.171875 1.125 -0.171875 C 1.394531 -0.171875 1.632812 -0.203125 1.84375 -0.265625 C 2.0625 -0.328125 2.25 -0.414062 2.40625 -0.53125 C 2.570312 -0.65625 2.695312 -0.8125 2.78125 -1 C 2.875 -1.195312 2.921875 -1.425781 2.921875 -1.6875 C 2.921875 -1.945312 2.875 -2.171875 2.78125 -2.359375 C 2.6875 -2.554688 2.554688 -2.710938 2.390625 -2.828125 C 2.234375 -2.953125 2.046875 -3.046875 1.828125 -3.109375 C 1.609375 -3.171875 1.363281 -3.203125 1.09375 -3.203125 Z M 0.5 -3.203125 "/></g></g></g><g fill="#000000" fill-opacity="1"><g transform="translate(92.704303, 55.857641)"><g><path d="M 1.546875 -3.34375 C 1.546875 -3.351562 1.554688 -3.363281 1.578125 -3.375 C 1.597656 -3.382812 1.613281 -3.390625 1.625 -3.390625 C 1.664062 -3.390625 1.695312 -3.375 1.71875 -3.34375 L 3.125 -0.109375 C 3.132812 -0.0976562 3.140625 -0.0820312 3.140625 -0.0625 C 3.140625 -0.0390625 3.128906 -0.0195312 3.109375 0 C 3.085938 0.0195312 3.066406 0.03125 3.046875 0.03125 C 3.003906 0.03125 2.972656 0.0078125 2.953125 -0.03125 L 2.453125 -1.1875 L 0.8125 -1.203125 L 0.296875 -0.03125 C 0.285156 0.0078125 0.257812 0.03125 0.21875 0.03125 C 0.1875 0.03125 0.160156 0.0195312 0.140625 0 C 0.128906 -0.0078125 0.125 -0.03125 0.125 -0.0625 C 0.125 -0.0703125 0.125 -0.0820312 0.125 -0.09375 Z M 1.625 -3.078125 L 0.890625 -1.390625 L 2.375 -1.375 Z M 1.625 -3.078125 "/></g></g></g><g fill="#000000" fill-opacity="1"><g transform="translate(95.957132, 55.857641)"><g><path d="M 1.546875 -3.390625 C 1.804688 -3.390625 2.035156 -3.328125 2.234375 -3.203125 C 2.429688 -3.078125 2.578125 -2.910156 2.671875 -2.703125 C 2.671875 -2.691406 2.671875 -2.675781 2.671875 -2.65625 C 2.671875 -2.632812 2.660156 -2.613281 2.640625 -2.59375 C 2.628906 -2.582031 2.613281 -2.578125 2.59375 -2.578125 C 2.550781 -2.578125 2.523438 -2.59375 2.515625 -2.625 C 2.429688 -2.800781 2.304688 -2.941406 2.140625 -3.046875 C 1.972656 -3.160156 1.773438 -3.21875 1.546875 -3.21875 C 1.421875 -3.21875 1.296875 -3.195312 1.171875 -3.15625 C 1.046875 -3.125 0.925781 -3.078125 0.8125 -3.015625 C 0.707031 -2.953125 0.625 -2.867188 0.5625 -2.765625 C 0.5 -2.660156 0.46875 -2.546875 0.46875 -2.421875 C 0.46875 -2.304688 0.5 -2.207031 0.5625 -2.125 C 0.625 -2.039062 0.703125 -1.972656 0.796875 -1.921875 C 0.921875 -1.867188 1.070312 -1.828125 1.25 -1.796875 C 1.4375 -1.773438 1.625 -1.753906 1.8125 -1.734375 C 2.007812 -1.722656 2.175781 -1.691406 2.3125 -1.640625 C 2.445312 -1.578125 2.554688 -1.488281 2.640625 -1.375 C 2.734375 -1.257812 2.78125 -1.117188 2.78125 -0.953125 C 2.78125 -0.785156 2.742188 -0.640625 2.671875 -0.515625 C 2.609375 -0.390625 2.519531 -0.285156 2.40625 -0.203125 C 2.289062 -0.128906 2.160156 -0.0703125 2.015625 -0.03125 C 1.867188 0.0078125 1.710938 0.03125 1.546875 0.03125 C 1.242188 0.03125 0.976562 -0.03125 0.75 -0.15625 C 0.53125 -0.289062 0.363281 -0.484375 0.25 -0.734375 C 0.25 -0.742188 0.25 -0.753906 0.25 -0.765625 C 0.25 -0.785156 0.253906 -0.800781 0.265625 -0.8125 C 0.285156 -0.832031 0.304688 -0.84375 0.328125 -0.84375 C 0.367188 -0.84375 0.394531 -0.828125 0.40625 -0.796875 C 0.5 -0.585938 0.644531 -0.425781 0.84375 -0.3125 C 1.039062 -0.195312 1.273438 -0.140625 1.546875 -0.140625 C 1.734375 -0.140625 1.90625 -0.164062 2.0625 -0.21875 C 2.21875 -0.28125 2.347656 -0.375 2.453125 -0.5 C 2.554688 -0.625 2.609375 -0.773438 2.609375 -0.953125 C 2.609375 -1.078125 2.570312 -1.179688 2.5 -1.265625 C 2.4375 -1.359375 2.347656 -1.425781 2.234375 -1.46875 C 2.140625 -1.507812 2.019531 -1.539062 1.875 -1.5625 C 1.726562 -1.59375 1.59375 -1.609375 1.46875 -1.609375 C 1.351562 -1.617188 1.222656 -1.632812 1.078125 -1.65625 C 0.941406 -1.6875 0.820312 -1.722656 0.71875 -1.765625 C 0.59375 -1.828125 0.488281 -1.910156 0.40625 -2.015625 C 0.332031 -2.128906 0.296875 -2.265625 0.296875 -2.421875 C 0.296875 -2.546875 0.316406 -2.660156 0.359375 -2.765625 C 0.410156 -2.867188 0.476562 -2.957031 0.5625 -3.03125 C 0.644531 -3.113281 0.738281 -3.179688 0.84375 -3.234375 C 0.957031 -3.285156 1.070312 -3.320312 1.1875 -3.34375 C 1.3125 -3.375 1.429688 -3.390625 1.546875 -3.390625 Z M 1.546875 -3.390625 "/></g></g></g></svg>